<svg width="210" height="72" viewBox="0 0 210 72" xmlns="http://www.w3.org/2000/svg" xmlns:xlink="http://www.w3.org/1999/xlink"><title>Page 1</title><defs><path id="a" d="M0 71.436h209.676V.87H0z"/></defs><g fill="none" fill-rule="evenodd"><path d="M6.874 22.83c0 1.482-.086 5.97 5.7 5.97 3.655 0 5.961-1.743 5.961-4.401 0-2.789-1.957-3.269-5.961-4.227C5.09 18.299 1 16.077 1 10.63 1 5.444 4.7.869 13.444.869c3.264 0 7.137.74 9.486 3.703 1.785 2.267 1.785 4.794 1.785 5.84H18.23c-.088-1.09-.435-4.793-5.09-4.793-3.134 0-5.178 1.699-5.178 4.27 0 2.92 2.305 3.442 6.83 4.575 5.44 1.307 10.791 2.789 10.791 8.933 0 5.664-4.699 10.24-13.401 10.24C.13 33.637.044 25.88 0 22.83h6.874zM27.889 1.392h6.395v18.563l6.657-9.195h7.267l-7.528 9.587 8.007 12.549H41.07l-6.787-11.983v11.983H27.89z" fill="#FEFEFE"/><path d="M54.734 26.099c0 1.481 1 3.137 3.132 3.137 1.175 0 2.132-.567 2.743-1.264 1.13-1.395 1.217-3.094 1.217-5.447-4.133-.348-7.092.96-7.092 3.574zm7.918 6.797c-.217-1.35-.217-2.353-.217-3.007-2.437 3.53-5.352 3.53-6.57 3.53-3.176 0-4.613-.915-5.482-1.743-1.306-1.307-1.915-3.094-1.915-4.837 0-1.742.609-4.967 4.656-6.841 2.698-1.22 6.57-1.22 8.702-1.22 0-1.438-.043-2.135-.305-2.92-.565-1.611-2.262-1.83-2.871-1.83-.915 0-1.872.392-2.437 1.22-.479.741-.479 1.438-.479 1.961h-6.308c.044-1.177.174-3.53 2.479-5.185 2.002-1.438 4.57-1.786 6.657-1.786 1.828 0 5.657.305 7.833 2.832 1.48 1.786 1.522 4.4 1.522 5.403l.043 8.846c0 1.873.131 3.747.523 5.577h-5.83zM80.752 29.149c1.87 0 3.393-1.134 4.09-2.484.957-1.83 1.044-4.096 1.044-5.186 0-4.314-1.87-6.666-4.786-6.666-4.307 0-4.786 5.185-4.786 7.408 0 3.66 1.218 6.928 4.438 6.928zm4.916-27.713h6.483v27.887a38.1 38.1 0 0 0 .175 3.573h-6.527l-.174-3.18c-.435.783-.87 1.611-2.219 2.483-1.61 1.046-3.307 1.132-4.264 1.132-5.874 0-9.355-4.052-9.355-10.937 0-7.276 3.96-11.808 9.704-11.808 3.958 0 5.612 2.222 6.177 3.007V1.436zM104.812 29.149c1.87 0 3.393-1.134 4.09-2.484.957-1.83 1.044-4.096 1.044-5.186 0-4.314-1.871-6.666-4.787-6.666-4.306 0-4.785 5.185-4.785 7.408 0 3.66 1.218 6.928 4.438 6.928zm4.917-27.713h6.483v27.887c0 1.307.086 2.745.173 3.573h-6.526l-.175-3.18c-.434.783-.87 1.611-2.218 2.483-1.61 1.046-3.307 1.132-4.264 1.132-5.875 0-9.355-4.052-9.355-10.937 0-7.276 3.96-11.808 9.703-11.808 3.959 0 5.613 2.222 6.179 3.007V1.436zM132.614 19.475c0-1.002-.088-4.924-3.83-4.924-2.827 0-4.002 2.353-4.133 4.924h7.963zm-8.18 4.052c0 1.439 0 5.883 4.48 5.883 1.61 0 3.22-.61 3.83-3.05h5.874c-.087 1.045-.305 2.92-2.088 4.793-1.61 1.7-4.481 2.571-7.702 2.571-1.871 0-5.439-.348-7.745-2.745-2.001-2.091-2.828-5.055-2.828-8.585 0-3.572.87-7.843 4.568-10.414 1.698-1.133 3.786-1.83 6.18-1.83 3.132 0 6.874 1.22 8.875 5.316 1.479 3.007 1.392 6.231 1.305 8.061h-14.75zM141.157 14.813c0-.088 0-2.484-.13-4.01h6.179l.173 3.313c.61-1.003 2.35-3.835 7.137-3.835 4.306 0 6.134 2.614 6.699 4.139.48 1.351.61 2.485.61 6.58v11.896h-6.57V19.214c0-.915 0-1.7-.348-2.397-.479-.959-1.48-1.874-3.133-1.874-1.392 0-2.654.654-3.35 1.7-.391.566-.784 1.656-.784 3.355v12.898h-6.483V14.813zM.285 39.192H20.56v5.054H7.028v7.756h12.618v5.23H7.028v13.42H.285zM32.96 66.948c2.828 0 4.742-1.699 4.742-7.538 0-2.919-.565-6.972-4.83-6.972-4.699 0-4.742 5.446-4.742 7.451 0 4.924 1.654 7.06 4.83 7.06m-.088-18.825c7.963 0 11.4 5.404 11.4 11.548 0 6.187-3.567 11.764-11.53 11.764-6.265 0-11.226-3.878-11.226-11.59 0-5.316 2.699-11.722 11.356-11.722M52.756 48.648v13.115c0 1.917 0 4.836 3.437 4.836 4.134 0 4.134-3.092 4.134-6.84V48.647h6.613v14.51c.086 4.75.13 5.315.13 5.882.044.61.087 1.002.174 1.612H60.98l-.218-2.92c-.653.96-2.307 3.487-6.484 3.487-2.957 0-5.395-1.351-6.613-2.964-1.436-1.786-1.436-4.836-1.436-5.925V48.648h6.527zM70.463 52.569c0-.087 0-2.483-.13-4.01h6.178l.174 3.313c.61-1.002 2.35-3.835 7.136-3.835 4.306 0 6.135 2.614 6.7 4.14.48 1.35.61 2.483.61 6.58v11.896H84.56V56.969c0-.914 0-1.699-.347-2.396-.48-.959-1.48-1.874-3.134-1.874-1.392 0-2.653.653-3.35 1.7-.39.566-.783 1.656-.783 3.355v12.899h-6.483V52.569zM103.921 66.904c1.87 0 3.394-1.132 4.09-2.482.956-1.83 1.045-4.096 1.045-5.186 0-4.314-1.871-6.667-4.787-6.667-4.307 0-4.786 5.185-4.786 7.407 0 3.66 1.219 6.928 4.438 6.928zm4.916-27.713h6.484V67.08c0 1.307.087 2.745.174 3.573h-6.528l-.172-3.181c-.436.785-.872 1.613-2.22 2.484-1.61 1.046-3.307 1.133-4.264 1.133-5.873 0-9.355-4.053-9.355-10.937 0-7.277 3.96-11.809 9.703-11.809 3.96 0 5.613 2.222 6.178 3.006V39.191zM123.5 63.854c0 1.482 1 3.137 3.131 3.137 1.176 0 2.132-.565 2.743-1.263 1.13-1.394 1.218-3.093 1.218-5.446-4.133-.349-7.093.958-7.093 3.572zm7.918 6.798c-.217-1.35-.217-2.353-.217-3.006-2.438 3.53-5.353 3.53-6.57 3.53-3.176 0-4.613-.916-5.483-1.744-1.306-1.307-1.915-3.094-1.915-4.836 0-1.743.61-4.968 4.657-6.842 2.698-1.22 6.57-1.22 8.702-1.22 0-1.438-.044-2.135-.305-2.92-.566-1.612-2.262-1.83-2.871-1.83-.915 0-1.872.392-2.437 1.221-.479.74-.479 1.437-.479 1.96h-6.309c.045-1.176.175-3.529 2.48-5.185 2.001-1.438 4.57-1.787 6.657-1.787 1.828 0 5.657.305 7.833 2.832 1.48 1.787 1.522 4.401 1.522 5.404l.043 8.845c0 1.875.131 3.749.522 5.578h-5.83zM153.265 70.347c-2.09.566-3.96.697-5.005.697-6.483 0-6.483-4.095-6.483-5.926v-12.07h-4.22v-4.27h4.22v-4.314l6.396-2.353v6.668h5.222v4.27h-5.222v9.934c.045 2.005.045 3.268 2.915 3.268.958 0 1.393-.044 2.177-.13v4.226z" fill="#FEFEFE"/><mask id="b" fill="#fff"><use xlink:href="#a"/></mask><path d="M155.57 70.652h6.438V48.604h-6.439v22.048zm-.22-25.84h6.876v-5.62h-6.875v5.62zM175.522 66.948c2.828 0 4.744-1.699 4.744-7.538 0-2.919-.567-6.972-4.831-6.972-4.7 0-4.742 5.446-4.742 7.451 0 4.924 1.653 7.06 4.83 7.06m-.088-18.825c7.962 0 11.4 5.404 11.4 11.548 0 6.187-3.568 11.764-11.53 11.764-6.267 0-11.226-3.878-11.226-11.59 0-5.316 2.698-11.722 11.356-11.722M189.01 52.569c0-.087 0-2.483-.131-4.01h6.178l.174 3.313c.61-1.002 2.35-3.835 7.136-3.835 4.307 0 6.135 2.614 6.7 4.14.479 1.35.609 2.483.609 6.58v11.896h-6.57V56.969c0-.914 0-1.699-.348-2.396-.478-.959-1.479-1.874-3.133-1.874-1.392 0-2.653.653-3.35 1.7-.391.566-.783 1.656-.783 3.355v12.899h-6.483V52.569z" fill="#FEFEFE" mask="url(#b)"/></g></svg>