<svg width="216" height="75" viewBox="0 0 216 75" xmlns="http://www.w3.org/2000/svg"><g fill="none" fill-rule="evenodd"><path fill="#ED3327" d="M0 .2h216v74H0z"/><g fill="#FFF"><path d="M41 31.3h-.9c-.4-5.5-3.9-10-9.7-10-3 0-6.1 2.3-6.1 5.4 0 7.3 19.1 8.6 19.1 18.9 0 5.5-4.3 10.1-11 10.1-2.4 0-4.2-.5-5.5-1-1.4-.5-2.5-.9-3.7-.9-1.2 0-1.5.9-1.6 1.9h-.9v-12h.9c.8 8.4 7.2 9.9 10.3 9.9 3.5 0 7-1.8 7-5.7 0-8-18.5-9-18.5-19.4 0-5.4 4.8-9.3 10.3-9.3 1.9 0 3.5.5 4.7 1 1.3.5 2.3 1 3 1 1.3 0 1.6-.9 1.8-2h.8v12.1zM54.2 50.4c0 3.1 1.2 3.5 3.6 3.5v.9H46.3v-.9c2.4-.1 3.6-.4 3.6-3.5V25.3c0-3.6-1.1-3.6-1.8-3.6-.6 0-1.3.2-1.8.4l-.3-.9 7.1-2.9h1.2v32.1h-.1zm.1-8.6l6.7-6.1c.5-.5 1.7-1.4 1.7-2.2 0-1.1-1.1-1.2-1.9-1.2v-1h10.3v1c-3.5 0-4.7.8-7.1 3.1l-5.5 5.1 7.2 9c3.6 4.5 4.4 4.5 6.7 4.5v.9H60.9V54c.6 0 1.6 0 1.6-1 0-.6-.4-1.2-.7-1.6l-7.5-9.6zM90.8 48.3c0 2.4 0 4.1 1.3 4.1.8 0 2.1-1.4 2.7-2.1v1.5c-1.2 1.6-3.3 3.8-5.5 3.8-2.3 0-2.8-1.9-2.8-3.8-2.4 1.7-4.2 3.8-7.4 3.8-3.6 0-5.6-2.7-5.6-6.2 0-5.9 8.7-8 13.1-9.9 0-4-.3-7.4-4.3-7.4-1.7 0-3.5 1-3.5 3.1 0 2.5-.5 3.7-2.2 3.7-1.5 0-2.2-1.2-2.2-2.5 0-1.4 1.5-5.9 8.7-5.9 7.7 0 7.7 4.9 7.7 6.4v11.4zm-4.3-7.2c-3.5 1.4-8.8 3.3-8.8 7.3 0 2.1 1.4 4.3 3.7 4.3 1.6 0 3.8-1.6 5.1-2.6v-9zM113 25.3c0-3.6-1.1-3.6-1.8-3.6-.6 0-1.3.2-1.8.4l-.4-.9 7.1-2.9h1.2v30.3c0 3.6 1.1 3.6 1.8 3.6.6 0 1.3-.2 1.8-.4l.4.9-7.1 2.9H113v-3.4c-2 2.1-4.1 3.4-7 3.4-6.2 0-9.5-6.1-9.5-11.6 0-6.3 4.5-13.4 11.3-13.4 1.9 0 3.8.6 5.2 2v-7.3zm0 13.6c0-3.2-1.9-6.7-5.5-6.7-1.9 0-6.3 1.7-6.3 10 0 6.4 3.2 10.6 7.2 10.6 1.8 0 3.3-1.1 4.5-2.4V38.9h.1zM139 25.3c0-3.6-1.1-3.6-1.8-3.6-.6 0-1.3.2-1.8.4l-.4-.9 7.1-2.9h1.2v30.3c0 3.6 1.1 3.6 1.8 3.6.6 0 1.3-.2 1.8-.4l.4.9-7.1 2.9H139v-3.4c-2 2.1-4.1 3.4-7 3.4-6.2 0-9.5-6.1-9.5-11.6 0-6.3 4.5-13.4 11.3-13.4 1.9 0 3.8.6 5.2 2v-7.3zm0 13.6c0-3.2-1.9-6.7-5.5-6.7-1.9 0-6.3 1.7-6.3 10 0 6.4 3.2 10.6 7.2 10.6 1.8 0 3.3-1.1 4.5-2.4V38.9h.1zM152 40.2c0 5.3 2.7 11.2 8.5 11.2 3.8 0 5.8-2.2 7.1-5.6l.8.5c-.9 4.8-4.3 9.3-9.6 9.3-5.7 0-10.3-4.9-10.3-12.1 0-6.8 3.4-12.9 10.9-12.9 5.4 0 9 3.9 9 9.6H152zm11-1.5c0-3.3-1.6-6.2-5.4-6.2-3.1 0-5.3 3.1-5.5 6.2H163zM178.2 35.5c3-3.3 5-4.9 8-4.9 4.3 0 6 4 6 8v11.9c0 3.1 1.2 3.5 3.6 3.5v.9h-11.5V54c2.4-.1 3.6-.4 3.6-3.5v-11c0-5.2-2.2-5.7-3.7-5.7-2.4 0-4.2 1.6-6 3.4v13.3c0 3.1 1.2 3.5 3.6 3.5v.9h-11.5V54c2.4-.1 3.6-.4 3.6-3.5V37.6c0-3.6-1.1-3.6-1.8-3.6-.6 0-1.3.2-1.8.4l-.4-.9 7.1-2.9h1.2v4.9z"/></g></g></svg>